<?xml version="1.0" encoding="UTF-8" standalone="no"?>
<!-- Created with Inkscape (http://www.inkscape.org/) -->

<svg
   xmlns:dc="http://purl.org/dc/elements/1.1/"
   xmlns:cc="http://creativecommons.org/ns#"
   xmlns:rdf="http://www.w3.org/1999/02/22-rdf-syntax-ns#"
   xmlns:svg="http://www.w3.org/2000/svg"
   xmlns="http://www.w3.org/2000/svg"
   xmlns:sodipodi="http://sodipodi.sourceforge.net/DTD/sodipodi-0.dtd"
   xmlns:inkscape="http://www.inkscape.org/namespaces/inkscape"
   width="197mm"
   height="57mm"
   viewBox="0 0 197 57"
   version="1.1"
   id="svg8"
   inkscape:version="0.92.4 (f8dce91, 2019-08-02)"
   sodipodi:docname="mocca.svg"
   inkscape:export-filename="/home/titan/Skrivebord/mocca.png"
   inkscape:export-xdpi="96"
   inkscape:export-ydpi="96">
  <defs
     id="defs2">
    <marker
       inkscape:isstock="true"
       style="overflow:visible"
       id="marker4943"
       refX="0"
       refY="0"
       orient="auto"
       inkscape:stockid="Arrow1Lstart">
      <path
         transform="matrix(0.8,0,0,0.8,10,0)"
         style="fill:#000000;fill-opacity:1;fill-rule:evenodd;stroke:#000000;stroke-width:1.00000003pt;stroke-opacity:1"
         d="M 0,0 5,-5 -12.5,0 5,5 Z"
         id="path4941"
         inkscape:connector-curvature="0" />
    </marker>
    <marker
       inkscape:isstock="true"
       style="overflow:visible"
       id="marker4887"
       refX="0"
       refY="0"
       orient="auto"
       inkscape:stockid="Arrow1Lstart">
      <path
         transform="matrix(0.8,0,0,0.8,10,0)"
         style="fill:#000000;fill-opacity:1;fill-rule:evenodd;stroke:#000000;stroke-width:1.00000003pt;stroke-opacity:1"
         d="M 0,0 5,-5 -12.5,0 5,5 Z"
         id="path4885"
         inkscape:connector-curvature="0" />
    </marker>
  </defs>
  <sodipodi:namedview
     id="base"
     pagecolor="#ffffff"
     bordercolor="#666666"
     borderopacity="1.0"
     inkscape:pageopacity="0.0"
     inkscape:pageshadow="2"
     inkscape:zoom="0.98994949"
     inkscape:cx="295.07535"
     inkscape:cy="88.176767"
     inkscape:document-units="mm"
     inkscape:current-layer="layer1"
     showgrid="false"
     inkscape:window-width="1920"
     inkscape:window-height="1052"
     inkscape:window-x="0"
     inkscape:window-y="0"
     inkscape:window-maximized="1" />
  <metadata
     id="metadata5">
    <rdf:RDF>
      <cc:Work
         rdf:about="">
        <dc:format>image/svg+xml</dc:format>
        <dc:type
           rdf:resource="http://purl.org/dc/dcmitype/StillImage" />
        <dc:title></dc:title>
      </cc:Work>
    </rdf:RDF>
  </metadata>
  <g
     inkscape:label="Layer 1"
     inkscape:groupmode="layer"
     id="layer1"
     transform="translate(0,-240)">
    <path
       style="fill:none;stroke:#000000;stroke-width:2.59591675;stroke-linecap:butt;stroke-linejoin:miter;stroke-miterlimit:4;stroke-dasharray:none;stroke-opacity:1"
       d="m 36.453838,285.98463 0.950212,-5.22365"
       id="path5038"
       inkscape:connector-curvature="0"
       sodipodi:nodetypes="cc" />
    <path
       style="fill:none;stroke:#000000;stroke-width:2.59591675;stroke-linecap:butt;stroke-linejoin:miter;stroke-miterlimit:4;stroke-dasharray:none;stroke-opacity:1"
       d="m 46.916573,255.79788 -3.644141,4.2045"
       id="path5036"
       inkscape:connector-curvature="0"
       sodipodi:nodetypes="cc" />
    <path
       style="fill:none;stroke:#000000;stroke-width:2.59591675;stroke-linecap:butt;stroke-linejoin:miter;stroke-miterlimit:4;stroke-dasharray:none;stroke-opacity:1"
       d="m 20.655086,280.42322 2.350659,-7.23125"
       id="path4977"
       inkscape:connector-curvature="0"
       sodipodi:nodetypes="cc" />
    <path
       style="fill:none;stroke:#000000;stroke-width:2.59591675;stroke-linecap:butt;stroke-linejoin:miter;stroke-miterlimit:4;stroke-dasharray:none;stroke-opacity:1"
       d="m 34.951179,248.22717 -3.736987,4.64219"
       id="path4975"
       inkscape:connector-curvature="0"
       sodipodi:nodetypes="cc" />
    <path
       style="fill:#784421;fill-opacity:1;stroke:none;stroke-width:0.13983952px;stroke-linecap:butt;stroke-linejoin:miter;stroke-opacity:1"
       d="m 19.778847,254.58346 c 0,-2.48516 3.793825,-4.82834 6.252777,-5.39638 2.458977,-0.56803 10.819425,-0.35502 17.282972,5.53842 6.463547,5.89343 9.695344,12.99394 8.78201,18.39034 -0.913334,5.39641 -2.318463,4.33134 -3.161517,3.83428 -0.843077,-0.49703 -2.529209,-5.04135 -8.149702,-9.6567 -5.62047,-4.61536 -10.257373,-3.12423 -14.472737,-6.17746 -4.21534,-3.05322 -6.533803,-6.5325 -6.533803,-6.5325 z"
       id="path61"
       inkscape:connector-curvature="0" />
    <path
       style="fill:#784421;fill-opacity:1;stroke:none;stroke-width:0.13983952px;stroke-linecap:butt;stroke-linejoin:miter;stroke-opacity:1"
       d="m 16.476817,257.63671 c -1.615875,1.77512 -2.388696,6.8165 -0.281026,11.36084 2.107694,4.54432 4.28562,9.72771 12.575836,12.56792 8.290191,2.84021 12.856837,2.76921 15.877842,1.63313 3.021004,-1.1361 2.880491,-2.62719 2.458976,-3.47927 -0.421539,-0.85206 -3.723593,-7.73956 -8.079446,-9.79872 -4.355877,-2.05916 -12.435323,-2.55619 -15.315814,-5.82243 -2.880491,-3.26624 -3.30203,-5.96444 -4.847648,-6.53247 -1.545643,-0.56804 -2.38872,0.071 -2.38872,0.071 z"
       id="path63"
       inkscape:connector-curvature="0" />
    <path
       style="fill:none;stroke:#000000;stroke-width:2.59591675;stroke-linecap:round;stroke-linejoin:miter;stroke-miterlimit:4;stroke-dasharray:none;stroke-opacity:1"
       d="m 2.9644528,267.8545 c 10.9973462,3.94506 21.0721622,8.2511 29.8136732,-2.25694 9.21699,-11.07961 13.677907,-19.43949 9.336679,-21.21746 -3.618413,-1.48192 -8.305661,5.27032 -7.163626,3.84707"
       id="path4597"
       inkscape:connector-curvature="0"
       sodipodi:nodetypes="cssc" />
    <path
       style="fill:none;stroke:#000000;stroke-width:2.59591675;stroke-linecap:round;stroke-linejoin:miter;stroke-miterlimit:4;stroke-dasharray:none;stroke-opacity:1"
       d="m 20.655086,280.42322 c -0.502318,1.85162 -0.679589,4.52173 0.761671,5.46069 3.209086,2.09068 14.397773,-5.61057 21.417194,-12.05213 7.951821,-7.43145 13.690502,-17.68276 11.099484,-19.79905 -2.956395,-2.51758 -5.756831,0.35968 -7.016862,1.76515"
       id="path4599"
       inkscape:connector-curvature="0"
       sodipodi:nodetypes="csccc" />
    <path
       style="fill:none;stroke:#000000;stroke-width:2.59591675;stroke-linecap:round;stroke-linejoin:miter;stroke-miterlimit:4;stroke-dasharray:none;stroke-opacity:1"
       d="m 36.453838,285.98463 c -0.223006,3.42092 1.833233,8.65639 8.404469,8.86228"
       id="path4601"
       inkscape:connector-curvature="0"
       sodipodi:nodetypes="cc" />
    <text
       xml:space="preserve"
       style="font-style:normal;font-weight:normal;font-size:25.54268837px;line-height:1.25;font-family:sans-serif;letter-spacing:0px;word-spacing:0px;fill:#000000;fill-opacity:1;stroke:none;stroke-width:0.63856715"
       x="61.713097"
       y="279.80252"
       id="text5044"><tspan
         sodipodi:role="line"
         id="tspan5042"
         x="61.713097"
         y="279.80252"
         style="font-style:normal;font-variant:normal;font-weight:normal;font-stretch:normal;font-size:34.05691528px;font-family:Arimo;-inkscape-font-specification:Arimo;stroke-width:0.63856715">MOCCA</tspan></text>
    <text
       xml:space="preserve"
       style="font-style:normal;font-weight:normal;font-size:29.55897141px;line-height:1.25;font-family:sans-serif;letter-spacing:0px;word-spacing:0px;fill:#000000;fill-opacity:1;stroke:none;stroke-width:0.73897415"
       x="64.110565"
       y="287.0083"
       id="text5044-1"><tspan
         sodipodi:role="line"
         id="tspan5042-5"
         x="64.110565"
         y="287.0083"
         style="font-style:normal;font-variant:normal;font-weight:normal;font-stretch:normal;font-size:4.89897394px;font-family:Arimo;-inkscape-font-specification:Arimo;stroke-width:0.73897415">Motif Occurrence Combinatorics Classification Algorithms</tspan></text>
  </g>
</svg>
