<?xml version="1.0" encoding="UTF-8" standalone="no"?>
<svg
   xmlns:dc="http://purl.org/dc/elements/1.1/"
   xmlns:cc="http://creativecommons.org/ns#"
   xmlns:rdf="http://www.w3.org/1999/02/22-rdf-syntax-ns#"
   xmlns:svg="http://www.w3.org/2000/svg"
   xmlns="http://www.w3.org/2000/svg"
   id="svg8"
   version="1.1"
   viewBox="0 0 162 34"
   height="34mm"
   width="162mm">
  <defs
     id="defs2">
    <marker
       orient="auto"
       refY="0"
       refX="0"
       id="marker4943"
       style="overflow:visible">
      <path
         id="path4941"
         d="M 0,0 5,-5 -12.5,0 5,5 Z"
         style="fill:#000000;fill-opacity:1;fill-rule:evenodd;stroke:#000000;stroke-width:1.00000003pt;stroke-opacity:1"
         transform="matrix(0.8,0,0,0.8,10,0)" />
    </marker>
    <marker
       orient="auto"
       refY="0"
       refX="0"
       id="marker4887"
       style="overflow:visible">
      <path
         id="path4885"
         d="M 0,0 5,-5 -12.5,0 5,5 Z"
         style="fill:#000000;fill-opacity:1;fill-rule:evenodd;stroke:#000000;stroke-width:1.00000003pt;stroke-opacity:1"
         transform="matrix(0.8,0,0,0.8,10,0)" />
    </marker>
  </defs>
  <metadata
     id="metadata5">
    <rdf:RDF>
      <cc:Work
         rdf:about="">
        <dc:format>image/svg+xml</dc:format>
        <dc:type
           rdf:resource="http://purl.org/dc/dcmitype/StillImage" />
        <dc:title></dc:title>
      </cc:Work>
    </rdf:RDF>
  </metadata>
  <g
     transform="translate(0,-263)"
     id="layer1">
    <path
       id="path5038"
       d="m 22.656507,290.46793 0.566297,-3.11313"
       style="fill:none;stroke:#c6d4a7;stroke-width:1.54708636;stroke-linecap:butt;stroke-linejoin:miter;stroke-miterlimit:4;stroke-dasharray:none;stroke-opacity:1" />
    <path
       id="path5036"
       d="m 28.891974,272.47756 -2.171795,2.50575"
       style="fill:none;stroke:#c6d4a7;stroke-width:1.54708636;stroke-linecap:butt;stroke-linejoin:miter;stroke-miterlimit:4;stroke-dasharray:none;stroke-opacity:1" />
    <path
       id="path4977"
       d="m 13.240938,287.15351 1.40092,-4.30961"
       style="fill:none;stroke:#c6d4a7;stroke-width:1.54708636;stroke-linecap:butt;stroke-linejoin:miter;stroke-miterlimit:4;stroke-dasharray:none;stroke-opacity:1" />
    <path
       id="path4975"
       d="m 21.760968,267.96565 -2.227128,2.7666"
       style="fill:none;stroke:#c6d4a7;stroke-width:1.54708636;stroke-linecap:butt;stroke-linejoin:miter;stroke-miterlimit:4;stroke-dasharray:none;stroke-opacity:1" />
    <path
       id="path61"
       d="m 12.718727,271.7538 c 0,-1.48108 2.261003,-2.87754 3.726462,-3.21608 1.465475,-0.33852 6.448044,-0.21157 10.300118,3.30073 3.852075,3.51231 5.778126,7.74399 5.233807,10.96008 -0.544318,3.21609 -1.381732,2.58134 -1.884167,2.28511 -0.502447,-0.29621 -1.507331,-3.00449 -4.85697,-5.75509 -3.349627,-2.75062 -6.113079,-1.86195 -8.625306,-3.68158 -2.512212,-1.81963 -3.893944,-3.89317 -3.893944,-3.89317 z"
       style="fill:#784421;fill-opacity:1;stroke:none;stroke-width:0.08334004px;stroke-linecap:butt;stroke-linejoin:miter;stroke-opacity:1" />
    <path
       id="path63"
       d="m 10.750819,273.57345 c -0.9630123,1.05792 -1.4235903,4.06242 -0.167483,6.7707 1.256121,2.70827 2.554097,5.79743 7.49481,7.4901 4.940698,1.69268 7.662279,1.65036 9.462704,0.97329 1.800425,-0.67709 1.716684,-1.56572 1.465474,-2.07354 -0.251224,-0.50779 -2.219146,-4.61254 -4.815101,-5.83973 -2.595967,-1.2272 -7.411069,-1.52341 -9.127752,-3.46999 -1.716684,-1.94657 -1.967908,-3.55462 -2.88905,-3.89316 -0.921154,-0.33853 -1.423602,0.0423 -1.423602,0.0423 z"
       style="fill:#784421;fill-opacity:1;stroke:none;stroke-width:0.08334004px;stroke-linecap:butt;stroke-linejoin:miter;stroke-opacity:1" />
    <path
       id="path4597"
       d="m 2.6978657,279.66293 c 6.55408,2.35113 12.5583593,4.91741 17.7680303,-1.34506 5.493042,-6.6031 8.151611,-11.58534 5.564373,-12.64495 -2.156462,-0.88318 -4.949918,3.14094 -4.269301,2.29273"
       style="fill:none;stroke:#c6d4a7;stroke-width:1.54708636;stroke-linecap:round;stroke-linejoin:miter;stroke-miterlimit:4;stroke-dasharray:none;stroke-opacity:1" />
    <path
       id="path4599"
       d="m 13.240938,287.15351 c -0.299366,1.1035 -0.405014,2.6948 0.453933,3.25439 1.912516,1.24598 8.580628,-3.34372 12.763986,-7.18269 4.739041,-4.42891 8.159118,-10.53838 6.61495,-11.79963 -1.76192,-1.50039 -3.430894,0.21436 -4.181833,1.05198"
       style="fill:none;stroke:#c6d4a7;stroke-width:1.54708636;stroke-linecap:round;stroke-linejoin:miter;stroke-miterlimit:4;stroke-dasharray:none;stroke-opacity:1" />
    <path
       id="path4601"
       d="m 22.656507,290.46793 c -0.132905,2.03877 1.092551,5.15894 5.008805,5.28165"
       style="fill:none;stroke:#c6d4a7;stroke-width:1.54708636;stroke-linecap:round;stroke-linejoin:miter;stroke-miterlimit:4;stroke-dasharray:none;stroke-opacity:1" />
    <text
       id="text5044"
       y="292.08673"
       x="33.648365"
       style="font-style:normal;font-weight:normal;font-size:25.54268837px;line-height:1.25;font-family:sans-serif;letter-spacing:0px;word-spacing:0px;fill:#5599ff;fill-opacity:1;stroke:none;stroke-width:0.63856715"
       xml:space="preserve"><tspan
         style="font-style:normal;font-variant:normal;font-weight:normal;font-stretch:normal;font-size:34.05691528px;font-family:Arimo;-inkscape-font-specification:Arimo;fill:#5599ff;stroke-width:0.63856715"
         y="292.08673"
         x="33.648365"
         id="tspan5042">MOCCA</tspan></text>
  </g>
</svg>
